# xmcd
#
# Track frame offsets:
# 150
# 15348
# 32305
# 45338
# 60209
# 76171
# 94907
# 110959
# 131247
# 143898
# 160031
# 174244
# 189893
# 205115
#
# Disc length: 2932 seconds
#
#
# Revision: 0
# Processed by: cddbd v1.5.2PL0 Copyright (c) Steve Scherf et al.
# Submitted via: FreeRIP 2.951 
#
DISCID=a30b720e
DTITLE=sergio reis - sergio reis em foco
DYEAR=1900
DGENRE=sertanejo
TTITLE0=menino da porteira
TTITLE1=tocando em frente
TTITLE2=saudade da minha terra
TTITLE3=panela velha
TTITLE4=boiadeiro errante
TTITLE5=disparada
TTITLE6=comitiva esperança
TTITLE7=pinga ne mim
TTITLE8=pinha no pinheira
TTITLE9=o tempo vai pagar
TTITLE10=outra vez
TTITLE11=vaca estrela e boi fuba
TTITLE12=fazendp são francisco
TTITLE13=trem pantanal
EXTD=
EXTT0=
EXTT1=
EXTT2=
EXTT3=
EXTT4=
EXTT5=
EXTT6=
EXTT7=
EXTT8=
EXTT9=
EXTT10=
EXTT11=
EXTT12=
EXTT13=
PLAYORDER=
